<svg width="12" height="12" viewBox="0 0 12 12" fill="none" xmlns="http://www.w3.org/2000/svg">
<path d="M10.9519 12L6.98519 7.8C6.67037 8.06667 6.30833 8.27778 5.89908 8.43333C5.48982 8.58889 5.05432 8.66667 4.59259 8.66667C3.44877 8.66667 2.48082 8.24733 1.68874 7.40867C0.896247 6.56956 0.5 5.54444 0.5 4.33333C0.5 3.12222 0.896247 2.09711 1.68874 1.258C2.48082 0.419333 3.44877 0 4.59259 0C5.73642 0 6.70458 0.419333 7.49708 1.258C8.28915 2.09711 8.68519 3.12222 8.68519 4.33333C8.68519 4.82222 8.61173 5.28333 8.46482 5.71667C8.3179 6.15 8.11852 6.53333 7.86667 6.86667L11.8333 11.0667L10.9519 12ZM4.59259 7.33333C5.37963 7.33333 6.04872 7.04178 6.59985 6.45867C7.15057 5.87511 7.42593 5.16667 7.42593 4.33333C7.42593 3.5 7.15057 2.79156 6.59985 2.208C6.04872 1.62489 5.37963 1.33333 4.59259 1.33333C3.80556 1.33333 3.13647 1.62489 2.58533 2.208C2.03462 2.79156 1.75926 3.5 1.75926 4.33333C1.75926 5.16667 2.03462 5.87511 2.58533 6.45867C3.13647 7.04178 3.80556 7.33333 4.59259 7.33333Z" fill="#2B2B2B"/>
</svg>
