<svg width="268" height="250" viewBox="0 0 268 250" fill="none" xmlns="http://www.w3.org/2000/svg">
<path opacity="0.05" d="M113.144 70.1658C180.748 35.1677 198.343 23.6043 230.943 62.9753C254.811 119.699 234.847 137.244 177.546 180.13C120.245 223.016 78.824 242.83 25.9658 172.205C10.115 89.9788 55.8436 113.051 113.144 70.1658Z" fill="black"/>
<mask id="mask0_2350_588" style="mask-type:alpha" maskUnits="userSpaceOnUse" x="35" y="33" width="199" height="199">
<rect x="35.6924" y="33.6827" width="198.133" height="198.133" fill="#D9D9D9"/>
</mask>
<g mask="url(#mask0_2350_588)">
<path d="M73.342 189.006V189.506V198.794C73.342 199.922 73.6835 200.786 74.3348 201.437L73.9813 201.791L74.3348 201.437C74.9799 202.082 75.8409 202.422 76.9698 202.422H93.4809C94.6093 202.422 95.4737 202.083 96.1247 201.437C96.7698 200.786 97.1087 199.922 97.1087 198.794V189.506V189.006H97.6087H105.364V160.612C105.364 159.639 105.036 158.796 104.365 158.061L73.342 189.006ZM73.342 189.006H72.842H65.0864M73.342 189.006H65.0864M65.0864 189.006V160.612C65.0864 159.639 65.4173 158.796 66.0937 158.061L66.0949 158.06C66.7434 157.35 67.5995 156.984 68.7142 156.984H81.0975H81.5975V156.484V91.4717C81.5975 83.6239 84.3656 76.9402 89.9131 71.3927C95.4606 65.8452 102.144 63.0772 109.992 63.0772C117.84 63.0772 124.523 65.8452 130.071 71.3927C135.618 76.9402 138.386 83.6239 138.386 91.4717V174.027C138.386 179.935 140.432 184.948 144.518 189.034C148.605 193.121 153.617 195.166 159.525 195.166C165.433 195.166 170.446 193.121 174.533 189.034C178.619 184.948 180.664 179.935 180.664 174.027V109.015V108.515H180.164H167.781C166.666 108.515 165.807 108.149 165.152 107.438C164.482 106.703 164.153 105.86 164.153 104.887V76.4925H171.909H172.409V75.9925V66.705C172.409 65.5773 172.75 64.7131 173.402 64.0618C174.047 63.4167 174.908 63.0772 176.036 63.0772H192.548C193.676 63.0772 194.54 63.4164 195.191 64.0621C195.836 64.713 196.175 65.5772 196.175 66.705V75.9925V76.4925H196.675H204.431V104.887C204.431 105.86 204.102 106.703 203.432 107.438C202.777 108.149 201.918 108.515 200.803 108.515H188.42H187.92V109.015V174.027C187.92 181.875 185.152 188.559 179.604 194.106C174.057 199.654 167.373 202.422 159.525 202.422C151.678 202.422 144.994 199.654 139.446 194.106C133.899 188.559 131.131 181.875 131.131 174.027V91.4717C131.131 85.5638 129.086 80.551 124.999 76.4645C120.913 72.3781 115.9 70.3328 109.992 70.3328C104.084 70.3328 99.0713 72.3781 94.9848 76.4645C90.8984 80.551 88.8531 85.5638 88.8531 91.4717V156.484V156.984H89.3531H101.736C102.85 156.984 103.71 157.349 104.364 158.06L65.0864 189.006Z" fill="white" stroke="#8D8D8D"/>
</g>
<line x1="169.218" y1="52.0754" x2="172.474" y2="58.5884" stroke="#8D8D8D" stroke-linecap="round"/>
<line x1="192.398" y1="58.5881" x2="195.655" y2="52.0754" stroke="#8D8D8D" stroke-linecap="round"/>
<line x1="182.861" y1="57.7816" x2="182.861" y2="50.4999" stroke="#8D8D8D" stroke-linecap="round"/>
<line x1="99.3587" y1="214.865" x2="96.179" y2="208.315" stroke="#8D8D8D" stroke-linecap="round"/>
<line x1="76.2572" y1="208.081" x2="72.9238" y2="214.555" stroke="#8D8D8D" stroke-linecap="round"/>
<line x1="85.7829" y1="208.999" x2="85.6973" y2="216.28" stroke="#8D8D8D" stroke-linecap="round"/>
<path d="M166.278 78.75H202.528V105.25C202.528 105.802 202.08 106.25 201.528 106.25H167.278C166.726 106.25 166.278 105.802 166.278 105.25V78.75Z" fill="#EEEEEE"/>
<path d="M103.778 186.25H67.5278V159.75C67.5278 159.198 67.9755 158.75 68.5278 158.75H102.778C103.33 158.75 103.778 159.198 103.778 159.75V186.25Z" fill="#EEEEEE"/>
<mask id="mask1_2350_588" style="mask-type:alpha" maskUnits="userSpaceOnUse" x="175" y="81" width="19" height="19">
<rect x="175.028" y="81.25" width="18.75" height="18.75" fill="#D9D9D9"/>
</mask>
<g mask="url(#mask1_2350_588)">
<path d="M182.84 97.6562L183.622 92.1875H180.887C180.692 92.1875 180.571 92.1354 180.525 92.0312C180.48 91.9271 180.51 91.7839 180.614 91.6016L185.184 83.5938H185.965L185.184 89.0625H187.918C188.114 89.0625 188.234 89.1146 188.279 89.2188C188.325 89.3229 188.296 89.4661 188.192 89.6484L183.622 97.6562H182.84Z" fill="#8D8D8D"/>
</g>
<mask id="mask2_2350_588" style="mask-type:alpha" maskUnits="userSpaceOnUse" x="76" y="165" width="20" height="19">
<rect x="76.2778" y="165" width="18.75" height="18.75" fill="#D9D9D9"/>
</mask>
<g mask="url(#mask2_2350_588)">
<path d="M84.0906 181.406L84.8718 175.938H82.1374C81.9421 175.938 81.8216 175.885 81.7757 175.781C81.7304 175.677 81.7598 175.534 81.864 175.352L86.4343 167.344H87.2156L86.4343 172.812H89.1687C89.364 172.812 89.4843 172.865 89.5296 172.969C89.5755 173.073 89.5463 173.216 89.4421 173.398L84.8718 181.406H84.0906Z" fill="#8D8D8D"/>
</g>
</svg>
